<svg width="36" height="36" viewBox="0 0 36 36" fill="none" xmlns="http://www.w3.org/2000/svg">
<g clip-path="url(#clip0)">
<path d="M18.5304 35.7803L24.7804 29.5303C25.0734 29.2373 25.0734 28.7627 24.7804 28.4698C24.4874 28.1768 24.0128 28.1768 23.7199 28.4698L18.7501 33.4395L18.7501 0.750023C18.7501 0.335461 18.4146 -2.8786e-07 18.0001 -3.05981e-07C17.5855 -3.24103e-07 17.2501 0.335461 17.2501 0.750023L17.2501 33.4395L12.2804 28.4698C11.9874 28.1768 11.5128 28.1768 11.2199 28.4698C11.0734 28.6162 11.0001 28.8082 11.0001 29C11.0001 29.1919 11.0734 29.3838 11.2199 29.5303L17.4699 35.7803C17.7628 36.0733 18.2374 36.0733 18.5304 35.7803Z" fill="black"/>
</g>
<defs>
<clipPath id="clip0">
<rect width="36" height="36" fill="white" transform="translate(36) rotate(90)"/>
</clipPath>
</defs>
</svg>
