<svg width="36" height="36" viewBox="0 0 36 36" fill="none" xmlns="http://www.w3.org/2000/svg">
<g clip-path="url(#clip0)">
<path d="M35.7681 12.3365C35.5922 12.1636 35.3463 12.0816 35.1017 12.1144H25.5515V7.89444C25.5515 3.72391 22.1706 0.343063 18.0001 0.343063C13.8296 0.343063 10.4487 3.72391 10.4487 7.89444V12.1144H0.898292C0.631746 12.1144 0.365284 12.1144 0.231969 12.3365C0.0529109 12.5085 -0.0301563 12.7577 0.00988937 13.0028L3.34142 31.215C3.80683 33.7556 6.00051 35.6146 8.58299 35.657H27.417C30.0069 35.5933 32.196 33.7196 32.6586 31.1706L35.9901 13.0028C36.0302 12.7577 35.9471 12.5085 35.7681 12.3365ZM12.2254 7.89444C12.2254 4.70524 14.8108 2.11987 18 2.11987C21.1892 2.11987 23.7746 4.70524 23.7746 7.89444V12.1144H12.2254V7.89444ZM30.8818 30.9485C30.5826 32.632 29.1269 33.8638 27.417 33.8802H8.58299C6.87318 33.8638 5.41742 32.6321 5.11822 30.9485L1.96439 13.8912H34.0356L30.8818 30.9485Z" fill="black"/>
<path d="M24.6632 22.553C25.1538 22.553 25.5516 22.1553 25.5516 21.6646V18.9994C25.5516 18.5088 25.1538 18.111 24.6632 18.111C24.1725 18.111 23.7748 18.5088 23.7748 18.9994V21.6646C23.7747 22.1553 24.1725 22.553 24.6632 22.553Z" fill="black"/>
<path d="M11.3371 22.553C11.8278 22.553 12.2255 22.1553 12.2255 21.6646V18.9994C12.2255 18.5088 11.8278 18.111 11.3371 18.111C10.8465 18.111 10.4487 18.5088 10.4487 18.9994V21.6646C10.4487 22.1553 10.8465 22.553 11.3371 22.553Z" fill="black"/>
</g>
<defs>
<clipPath id="clip0">
<rect width="36" height="36" fill="white"/>
</clipPath>
</defs>
</svg>
