<svg width="143" height="28" viewBox="0 0 143 28" fill="none" xmlns="http://www.w3.org/2000/svg">
<path d="M11.2366 5.53419C13.2277 5.53419 14.8245 6.14245 16.027 7.35897C17.2492 8.5755 17.8603 10.4103 17.8603 12.8632V22.1966H11.1775V14.0299C11.1775 12.1553 10.5171 11.218 9.1963 11.218C8.44719 11.218 7.83607 11.4872 7.36295 12.0256C6.90954 12.5442 6.68284 13.3718 6.68284 14.5085V22.1966H0V0H6.68284V7.14957C7.92478 6.07265 9.44271 5.53419 11.2366 5.53419Z" fill="black"/>
<path d="M29.5971 22.4957C27.8032 22.4957 26.1867 22.1368 24.7476 21.4188C23.3283 20.6809 22.2144 19.6738 21.4062 18.3974C20.5979 17.1011 20.1938 15.6353 20.1938 14C20.1938 12.3647 20.5979 10.9088 21.4062 9.63248C22.2144 8.33618 23.3283 7.32906 24.7476 6.61111C26.1867 5.89316 27.8032 5.53419 29.5971 5.53419C31.4107 5.53419 33.0272 5.89316 34.4466 6.61111C35.8857 7.32906 36.9995 8.33618 37.788 9.63248C38.5963 10.9088 39.0004 12.3647 39.0004 14C39.0004 15.6353 38.5963 17.1011 37.788 18.3974C36.9995 19.6738 35.8857 20.6809 34.4466 21.4188C33.0272 22.1368 31.4107 22.4957 29.5971 22.4957ZM29.5971 17.2308C30.3659 17.2308 30.9968 16.9516 31.4896 16.3932C31.9824 15.8148 32.2288 15.0171 32.2288 14C32.2288 12.9829 31.9824 12.1952 31.4896 11.6368C30.9968 11.0783 30.3659 10.7991 29.5971 10.7991C28.8283 10.7991 28.1975 11.0783 27.7046 11.6368C27.2118 12.1952 26.9654 12.9829 26.9654 14C26.9654 15.0171 27.2118 15.8148 27.7046 16.3932C28.1975 16.9516 28.8283 17.2308 29.5971 17.2308Z" fill="black"/>
<path d="M51.8851 5.53419C53.3045 5.53419 54.6055 5.88319 55.7883 6.5812C56.9909 7.25926 57.9371 8.24644 58.6271 9.54274C59.3368 10.839 59.6916 12.3348 59.6916 14.0299C59.6916 15.7251 59.3368 17.2208 58.6271 18.5171C57.9371 19.7934 56.9909 20.7806 55.7883 21.4786C54.6055 22.1567 53.3045 22.4957 51.8851 22.4957C50.0912 22.4957 48.7211 22.0271 47.7749 21.0897V28H41.092V5.83333H47.4496V7.17949C48.4155 6.08262 49.894 5.53419 51.8851 5.53419ZM50.2883 17.2308C51.0571 17.2308 51.688 16.9516 52.1808 16.3932C52.6736 15.8348 52.92 15.047 52.92 14.0299C52.92 13.0128 52.6736 12.2251 52.1808 11.6667C51.688 11.0883 51.0571 10.7991 50.2883 10.7991C49.5195 10.7991 48.8887 11.0883 48.3958 11.6667C47.903 12.2251 47.6566 13.0128 47.6566 14.0299C47.6566 15.047 47.903 15.8348 48.3958 16.3932C48.8887 16.9516 49.5195 17.2308 50.2883 17.2308Z" fill="black"/>
<path d="M79.0066 14C79.0066 14.0997 78.9771 14.6282 78.9179 15.5855H67.6813C67.9179 16.2037 68.3121 16.6823 68.8641 17.0214C69.4161 17.3405 70.106 17.5 70.934 17.5C71.6437 17.5 72.2351 17.4103 72.7082 17.2308C73.201 17.0513 73.7333 16.7422 74.305 16.3034L77.7943 19.8633C76.2172 21.6182 73.8614 22.4957 70.727 22.4957C68.7754 22.4957 67.0603 22.1368 65.5818 21.4188C64.1033 20.6809 62.9599 19.6638 62.1517 18.3675C61.3434 17.0712 60.9393 15.6154 60.9393 14C60.9393 12.3647 61.3336 10.9088 62.1221 9.63248C62.9304 8.33618 64.0245 7.32906 65.4044 6.61111C66.8041 5.89316 68.3713 5.53419 70.106 5.53419C71.7423 5.53419 73.2306 5.86325 74.5711 6.52137C75.9314 7.17949 77.0057 8.14672 77.7943 9.42308C78.6025 10.6994 79.0066 12.2251 79.0066 14ZM70.1652 10.141C69.4752 10.141 68.9035 10.3305 68.4501 10.7094C67.9967 11.0883 67.701 11.6268 67.563 12.3248H72.7674C72.6294 11.6467 72.3337 11.1182 71.8803 10.7393C71.4268 10.3405 70.8552 10.141 70.1652 10.141Z" fill="black"/>
<path d="M93.0323 21.6282C92.0269 22.2066 90.6569 22.4957 88.9221 22.4957C86.6551 22.4957 84.9104 21.9473 83.6882 20.8504C82.466 19.7336 81.8548 18.0684 81.8548 15.8547V11.6667H79.6371V6.73077H81.8548V2.15385H88.5377V6.73077H91.8495V11.6667H88.5377V15.7949C88.5377 16.2934 88.6658 16.6823 88.9221 16.9615C89.1784 17.2407 89.5135 17.3803 89.9275 17.3803C90.4992 17.3803 91.0018 17.2308 91.4355 16.9316L93.0323 21.6282Z" fill="black"/>
<path d="M101.961 5.53419C104.8 5.53419 106.969 6.18234 108.467 7.47863C109.965 8.75499 110.714 10.7293 110.714 13.4017V22.1966H104.504V20.0427C103.736 21.6781 102.208 22.4957 99.921 22.4957C98.6396 22.4957 97.5455 22.2764 96.6387 21.8376C95.7516 21.3789 95.0715 20.7707 94.5984 20.0128C94.145 19.235 93.9183 18.3675 93.9183 17.4103C93.9183 15.7949 94.5294 14.5684 95.7516 13.7308C96.9738 12.8932 98.8269 12.4744 101.311 12.4744H104.002C103.785 11.198 102.77 10.5598 100.956 10.5598C100.227 10.5598 99.4873 10.6795 98.7382 10.9188C97.9891 11.1382 97.3484 11.4473 96.8161 11.8462L94.6871 7.38889C95.6136 6.81054 96.7274 6.36182 98.0285 6.04274C99.3493 5.7037 100.66 5.53419 101.961 5.53419ZM101.932 18.4274C102.405 18.4274 102.829 18.2977 103.203 18.0385C103.578 17.7792 103.854 17.3903 104.031 16.8718V15.735H102.375C101.015 15.735 100.335 16.1937 100.335 17.1111C100.335 17.49 100.473 17.8091 100.749 18.0684C101.045 18.3077 101.439 18.4274 101.932 18.4274Z" fill="black"/>
<path d="M113.602 0H120.285V22.1966H113.602V0Z" fill="black"/>
<path d="M130.995 17.1709L129.93 18.3376V22.1966H123.247V0H129.93V10.5897L134.573 5.83333H142.468L135.785 12.9231L143 22.1966H134.927L130.995 17.1709Z" fill="black"/>
</svg>
